<?xml version="1.0" encoding="UTF-8" standalone="no"?>
<!-- Created with Inkscape (http://www.inkscape.org/) -->

<svg
   xmlns:dc="http://purl.org/dc/elements/1.1/"
   xmlns:cc="http://creativecommons.org/ns#"
   xmlns:rdf="http://www.w3.org/1999/02/22-rdf-syntax-ns#"
   xmlns:svg="http://www.w3.org/2000/svg"
   xmlns="http://www.w3.org/2000/svg"
   version="1.1"
   width="452.46533"
   height="357.71289"
   id="svg2">
  <defs
     id="defs4" />
  <metadata
     id="metadata7">
    <rdf:RDF>
      <cc:Work
         rdf:about="">
        <dc:format>image/svg+xml</dc:format>
        <dc:type
           rdf:resource="http://purl.org/dc/dcmitype/StillImage" />
        <dc:title></dc:title>
      </cc:Work>
    </rdf:RDF>
  </metadata>
  <g
     transform="translate(-106.38593,-173.76556)"
     id="layer1">
    <path
       d="m 354.37065,526.09055 c 14.65849,-3.44502 15.16128,-3.61541 16.37484,-5.5489 0.88517,-1.41029 0.37302,-2.44998 -2.81519,-5.715 -3.8074,-3.89913 -3.87027,-4.08098 -2.72842,-7.89211 1.45761,-4.86506 1.51225,-10.83866 0.10709,-11.7071 -2.23554,-1.38164 -2.82626,-5.98803 -3.95066,-30.80692 -0.88237,-19.4766 -0.88113,-26.44772 0.005,-29.13321 1.01759,-3.08332 0.89726,-3.96355 -0.95055,-6.95335 -1.77621,-2.87399 -2.88877,-9.81187 -6.93485,-43.24579 -4.75438,-39.28677 -4.86153,-39.88917 -7.96332,-44.7684 -1.72926,-2.72018 -3.1441,-6.24518 -3.1441,-7.83333 0,-3.91766 -2.16015,-3.03647 -3.30238,1.34713 -0.57762,2.21681 -0.48379,5.27381 0.26501,8.63385 0.88695,3.97997 0.88091,5.72196 -0.0257,7.41604 -1.3268,2.47914 -0.77254,12.45773 1.65794,29.84894 1.83114,13.10257 3.8501,20.97809 6.55184,25.55719 1.77579,3.00973 1.99706,4.48886 1.42624,9.53419 -0.63718,5.63196 -0.4934,6.22555 2.5266,10.43082 3.80212,5.29436 4.37212,10.0128 5.43741,45.01095 0.62172,20.42544 0.84118,22.35401 3.06636,26.94634 2.60754,5.38146 3.12,12.40937 1.36549,18.7263 -0.93704,3.37372 -1.42893,3.76032 -6.04364,4.75 -2.76297,0.59255 -5.69056,1.07736 -6.50575,1.07736 -2.70169,0 -2.68824,-2.99534 0.0319,-7.10575 2.00217,-3.02548 3.11175,-3.87422 4.3665,-3.34005 6.75001,2.87364 8.33888,-2.16127 2.6642,-8.44247 -4.11349,-4.55313 -6.91685,-5.82564 -9.00895,-4.08934 -1.0326,0.85697 -1.15844,1.6969 -0.45202,3.01687 1.53363,2.8654 1.16831,3.96075 -1.32089,3.96075 -2.32866,0 -4.7,-1.66015 -4.7,-3.29042 0,-0.48971 2.25,-3.05903 5,-5.70958 l 5,-4.81919 -0.0451,-6.84041 c -0.0248,-3.76223 -0.62789,-16.21127 -1.34017,-27.66455 -1.29298,-20.7906 -1.29956,-20.8283 -4.08374,-23.40994 l -2.78867,-2.5858 0.48052,-12.47369 0.48052,-12.47368 -4.13569,-4.65657 c -2.27463,-2.56111 -4.97582,-6.88848 -6.00263,-9.61637 -5.02658,-13.35383 -16.9712,-43.30265 -18.31444,-45.91985 -2.2334,-4.35163 -12.33833,-17.53996 -13.43915,-17.53996 -0.52042,0 -0.65358,-0.92203 -0.29591,-2.04896 1.05619,-3.32778 -2.20253,-6.93455 -9.08484,-10.05513 -7.99555,-3.62536 -10.84275,-3.81142 -9.88403,-0.6459 0.3748,1.2375 1.92043,4.14953 3.43474,6.47117 1.53402,2.35188 3.04162,6.39478 3.40439,9.12951 0.85472,6.44318 4.07771,11.07728 9.82477,14.12629 5.26233,2.79186 6.54233,2.35793 4.99968,-1.69491 -1.65052,-4.33622 -2.49687,-10.57724 -1.3372,-9.86052 1.91552,1.18386 7.7754,14.52743 24.84663,56.57846 10.79801,26.59837 11.56024,28.92016 11.42377,34.79696 -0.14536,6.25917 1.23486,10.57756 4.61246,14.43131 1.62921,1.85889 3.1742,17.25464 3.72667,37.13611 0.27867,10.0284 0.11891,11.14413 -2.07625,14.5 -3.2566,4.97855 -3.47296,5.1971 -8.82341,8.91298 -6.5311,4.53584 -5.95916,6.42207 2.34766,7.74256 7.04918,1.12057 8.15006,2.19213 5.09375,4.95806 -1.11338,1.0076 -2.02433,2.83067 -2.02433,4.05128 0,1.22061 -0.63677,4.02409 -1.41505,6.22996 -1.54201,4.37052 -0.50011,6.8407 2.38691,5.65899 0.84047,-0.34403 6.25314,-1.73597 12.02814,-3.09322 z m -1.96013,-18.77695 c -0.66276,-0.79858 -1.05536,-2.16088 -0.87245,-3.02734 0.30233,-1.43207 0.53725,-1.43128 2.58258,0.009 2.49127,1.7539 3.02144,4.47063 0.87244,4.47063 -0.75765,0 -1.91981,-0.65338 -2.58257,-1.45196 z M 293.95127,334.20331 c -0.86934,-0.86934 -1.58062,-2.61722 -1.58062,-3.88419 0,-1.26696 -0.28125,-3.70982 -0.625,-5.42857 -0.50112,-2.50558 -0.29279,-3.125 1.05103,-3.125 3.05745,0 6.27243,11.83226 3.65459,13.45017 -0.50566,0.31253 -1.63066,-0.14307 -2.5,-1.0124 z M 499.487,526.66482 c 0.99901,-0.51088 1.87213,-2.75478 2.28606,-5.87509 0.36834,-2.77669 0.92663,-5.71805 1.24064,-6.53635 0.31401,-0.81831 0.11,-1.48782 -0.45335,-1.48782 -0.56336,0 -1.8005,2.03249 -2.74921,4.51664 -1.90372,4.98484 -4.74566,6.46548 -9.32121,4.85635 -3.77391,-1.32722 -3.83533,-3.95135 -0.13724,-5.8637 1.70852,-0.88351 3.9739,-3.04704 5.03417,-4.80784 1.24524,-2.06797 3.40658,-3.73253 6.10463,-4.70145 3.91175,-1.40479 4.28551,-1.88084 5.88849,-7.5 0.9414,-3.30001 2.04516,-6.78125 2.45281,-7.73611 0.55662,-1.30381 0.0934,-1.98239 -1.86048,-2.72525 -1.43092,-0.54402 -2.60166,-1.41813 -2.60166,-1.94246 0,-1.63254 3.05022,-4.09618 5.07143,-4.09618 1.06071,0 1.92857,-0.67501 1.92857,-1.5 0,-0.825 -0.675,-1.5 -1.5,-1.5 -2.22559,0 -1.81654,-3.62719 0.67035,-5.94408 2.03785,-1.89855 2.06837,-2.13465 0.5,-3.8677 -2.2132,-2.44555 -2.20934,-2.47096 1.83374,-12.05746 1.92725,-4.56968 3.25069,-8.71852 2.94098,-9.21965 -0.30971,-0.5011 -2.1024,-0.91111 -3.98376,-0.91111 -2.97826,0 -3.68195,0.51217 -5.44099,3.96015 -2.35664,4.61941 -2.55944,7.34752 -0.66318,8.92129 0.85292,0.70785 1.35715,3.24792 1.35715,6.83672 0,3.47544 -0.53117,6.24158 -1.35715,7.06755 -0.74643,0.74642 -1.35714,2.29264 -1.35714,3.43605 0,1.14339 -1.11786,4.37374 -2.48414,7.17857 -3.27547,6.72417 -4.25936,11.59967 -2.34086,11.59967 0.78375,0 1.9575,-0.53251 2.60833,-1.18334 0.65084,-0.65084 1.51635,-0.85032 1.92337,-0.4433 1.41016,1.41016 -2.29912,6.127 -7.56546,9.62048 -2.91009,1.93044 -6.31547,5.20724 -7.56751,7.28179 -1.50402,2.49206 -4.04132,4.65138 -7.47787,6.36388 -5.62612,2.80361 -8.50532,6.12987 -7.52265,8.69067 0.53775,1.40136 2.07616,1.53253 11.77269,1.00382 6.13475,-0.3345 11.88146,-0.98014 12.77045,-1.43475 z m 9.24231,-69.40698 c -0.63354,-1.65099 2.099,-6.49228 3.66439,-6.49228 1.39022,0 1.21134,1.64605 -0.54873,5.04966 -1.72551,3.33677 -2.28873,3.59755 -3.11566,1.44262 z m -29.80481,53.42059 c 1.06982,-1.73101 -1.13982,-3.17905 -3.64013,-2.38549 -2.20084,0.69852 -2.21637,0.77815 -0.40953,2.09934 2.2666,1.65738 3.16304,1.72072 4.04966,0.28615 z m 7.51189,-0.94805 c 2.2643,-1.21182 2.55318,-3.79009 0.5124,-4.57321 -2.14591,-0.82346 -5.57814,1.41843 -5.57814,3.64357 0,2.16872 2.04818,2.54459 5.06574,0.92964 z m -19.19457,-1.30959 c 0.61383,-0.73962 4.47855,-3.0066 8.58827,-5.03773 9.34615,-4.61912 10.01799,-5.68183 20.62069,-32.6175 4.43819,-11.275 8.69178,-21.46767 9.45241,-22.65035 0.98037,-1.52434 2.85561,-2.35289 6.44145,-2.84607 3.37889,-0.46472 5.38393,-1.30384 6.03866,-2.52722 1.39118,-2.59945 0.17405,-4.97636 -2.54821,-4.97636 -3.32172,0 -5.46444,-2.59742 -5.46444,-6.62402 0,-4.441 2.91785,-17.37598 3.91964,-17.37598 0.41763,0 1.38322,1.2375 2.14575,2.75 l 1.38643,2.75 0.34309,-3.89484 c 0.36578,-4.15237 -3.45713,-13.88443 -5.22282,-13.29587 -0.52358,0.17453 -1.68101,3.41034 -2.57209,7.1907 -0.89108,3.78036 -2.12676,7.04225 -2.74596,7.24866 -0.6192,0.20639 -1.58172,-1.27587 -2.13893,-3.29392 -0.78592,-2.84638 -0.6601,-4.55145 0.56107,-7.60345 1.95173,-4.87786 1.10857,-5.93715 -2.22959,-2.80112 -2.4508,2.30241 -2.51959,2.68865 -1.84869,10.37965 0.5336,6.11709 1.14783,8.35345 2.62224,9.54736 1.73577,1.40553 1.81069,2.01475 0.76065,6.18482 -0.83751,3.32608 -0.86345,5.18874 -0.0923,6.62964 0.88769,1.65866 0.66883,2.2684 -1.27027,3.53895 -1.77376,1.16221 -2.50675,2.82637 -3.0181,6.85221 -0.99788,7.8563 -2.0629,10.835 -9.76716,27.31721 -3.85629,8.25 -7.8415,16.86324 -8.85601,19.14051 -1.59688,3.58452 -2.83014,4.60834 -9.18393,7.62422 -7.94373,3.77057 -10.34255,5.86084 -9.43628,8.22253 0.71828,1.87181 2.04763,1.93534 3.51443,0.16797 z m 25.84278,-14.69103 c 1.76767,-3.55532 3.50395,-7.70171 3.8584,-9.2142 0.98181,-4.18948 -1.22768,-3.34413 -2.6137,1 -0.65805,2.0625 -2.49295,6.05478 -4.07756,8.87173 -3.19622,5.68192 -3.47008,6.71887 -1.63109,6.17581 0.6875,-0.20302 2.69628,-3.27802 4.46395,-6.83334 z m 8.82077,-20.03134 c 0.87234,-1.68693 1.42226,-3.82443 1.22206,-4.75 -0.24923,-1.15219 -1.05664,-0.35521 -2.5604,2.52729 -2.47357,4.74151 -2.60025,5.28985 -1.22206,5.28985 0.53588,0 1.68805,-1.38021 2.5604,-3.06714 z m 17.98521,-8.93286 c 8.25034,-14.97945 13.48007,-25.06203 13.48007,-25.98865 0,-2.02588 -1.79146,-0.094 -6.54893,7.06225 -2.57204,3.8689 -4.85905,6.85174 -5.08225,6.62855 -0.22319,-0.22319 0.95251,-3.59782 2.61269,-7.49917 1.66017,-3.90134 3.01849,-7.95614 3.01849,-9.01066 0,-1.05452 1.35,-3.61606 3,-5.69232 2.78633,-3.50614 3,-4.3631 3,-12.03217 0,-5.51328 0.68481,-10.47432 2.0608,-14.92926 1.13344,-3.66965 1.90657,-7.65456 1.71805,-8.85533 -0.29374,-1.87109 -0.6441,-1.61134 -2.45049,1.81676 -3.38138,6.41708 -5.32836,14.35093 -5.32836,21.71289 0,5.25138 -0.36011,6.98807 -1.54313,7.44203 -2.5139,0.96467 -2.96419,-0.4135 -2.81887,-8.62768 0.12906,-7.29583 0.41784,-8.27159 4.46324,-15.08101 5.57778,-9.38879 6.4596,-17.08107 2.75458,-24.02865 -2.19835,-4.12231 -2.35691,-5.52049 -2.37211,-20.91759 -0.0167,-16.91756 -0.53916,-20.02879 -3.01793,-17.9716 -2.89797,2.40511 -4.7168,10.85158 -4.27053,19.83201 0.35385,7.12075 1.06857,10.1339 4.06557,17.1396 1.99993,4.675 3.91107,9.64936 4.24696,11.05412 0.73486,3.07334 -3.04507,13.83108 -5.14263,14.63599 -1.86005,0.71377 -5.36515,-2.45711 -5.36515,-4.85357 0,-1.58538 0.28121,-1.67788 1.94406,-0.63941 1.60699,1.00358 2.30053,0.89148 4,-0.64652 3.08701,-2.7937 2.72341,-12.55061 -0.46772,-12.55061 -1.94086,0 -2.37416,2.33621 -0.66665,3.5944 2.08388,1.53553 0.76722,6.66203 -1.59542,6.21182 -0.94285,-0.17966 -1.85807,-1.33456 -2.03382,-2.56644 -0.28368,-1.98836 -1.74889,-2.73543 -3.90252,-1.98978 -0.39714,0.13749 -0.57667,3.39745 -0.39895,7.24435 0.22584,4.88869 0.99141,8.20027 2.54296,11 2.06074,3.71853 2.17357,4.82992 1.57423,15.50565 -0.52493,9.35009 -0.37095,11.82499 0.8236,13.2384 1.30139,1.53983 1.22426,2.48463 -0.67527,8.27101 -1.17948,3.59292 -2.14486,7.08564 -2.14529,7.76159 -4.3e-4,0.67595 -1.36845,4.12001 -3.04004,7.65346 -1.67159,3.53345 -2.79825,7.05251 -2.50368,7.82013 0.81708,2.1293 4.51703,1.06491 6.06444,-1.74459 z m -2.12692,-33.5818 c 0.9237,-2.4071 0.72484,-5.4182 -0.35783,-5.4182 -1.18679,0 -3.03518,3.30939 -3.03518,5.43426 0,2.04129 2.60826,2.02897 3.39301,-0.0161 z M 504.29807,398.1307 c 2.86977,-3.64833 2.69858,-9.16359 -0.42742,-13.77001 -1.375,-2.02618 -2.5,-4.38242 -2.5,-5.23609 0,-0.85368 1.80873,-3.60697 4.0194,-6.11843 2.40571,-2.73304 4.61715,-6.62245 5.50827,-9.68781 1.66968,-5.74349 3.41524,-25.45695 3.44964,-38.95842 0.0205,-8.02477 -0.22961,-9.2364 -2.5282,-12.25 -1.40299,-1.83941 -3.24339,-3.34439 -4.08977,-3.34439 -1.32776,0 -1.43113,1.2004 -0.75348,8.75 1.1982,13.34914 0.71946,31.90545 -1.03362,40.06389 -1.89285,8.80884 -5.43146,17.39744 -6.96129,16.89579 -2.13884,-0.70132 -1.69459,-7.65494 1.46103,-22.86896 2.64016,-12.72892 3.17814,-17.55399 3.15991,-28.34071 -0.0242,-14.28337 -0.90674,-17.9391 -4.7542,-19.69212 -2.18066,-0.99357 -2.85996,-0.87005 -4.559,0.82899 -1.99537,1.99537 -1.99506,1.99968 0.53262,7.42983 3.05305,6.55878 3.11389,9.56337 0.54214,26.77335 -2.42171,16.20596 -2.52963,26.61781 -0.35618,34.36392 1.55472,5.541 1.54506,5.93708 -0.19167,7.85614 -1.69465,1.87257 -1.71268,2.21988 -0.24549,4.73042 0.87089,1.49021 2.36644,5.52197 3.32344,8.95947 1.91545,6.88021 3.24512,7.63084 6.40387,3.61514 z m -4.91955,-7.3541 c -2.41719,-3.39462 -3.10866,-8.07961 -1.28779,-8.7252 1.65444,-0.58657 5.27155,5.55885 5.27618,8.96415 0.005,3.56613 -1.33614,3.48579 -3.98839,-0.23895 z m 56.14386,2.23895 c 0.71876,-2.0625 1.31616,-7.58784 1.32755,-12.27853 0.0202,-8.30161 -0.12215,-8.82043 -5.3492,-19.5 -4.39845,-8.98662 -5.46299,-12.19261 -5.88437,-17.72147 -0.52238,-6.85405 -1.52312,-8.5759 -2.61542,-4.5 -1.33402,4.97787 -0.52478,11.18032 2.41736,18.52797 1.67621,4.18613 2.91371,8.76109 2.75,10.16659 -0.2949,2.53181 -0.31853,2.52307 -2.55471,-0.94455 -1.24139,-1.92501 -3.37889,-5.02906 -4.75,-6.89789 -2.13405,-2.90871 -2.4961,-4.49232 -2.5149,-11 -0.0161,-5.55698 -0.58182,-8.81272 -2.10304,-12.10212 -3.00631,-6.50067 -2.72814,-10.58342 1.15059,-16.88716 4.94496,-8.0366 7.92408,-16.04125 7.95067,-21.36284 0.0131,-2.6125 -0.33451,-4.75 -0.77237,-4.75 -0.43786,0 -1.7573,2.8125 -2.93209,6.25 -1.17479,3.4375 -3.80017,10.27236 -5.83418,15.18858 -4.48347,10.83658 -5.29228,18.2614 -3.03638,27.87347 0.87932,3.74663 1.60864,9.37163 1.62072,12.5 0.0288,7.44821 2.35012,12.35175 9.67244,20.43165 5.96593,6.58315 8.3056,11.54733 8.3056,17.62232 0,4.25464 1.56067,3.9496 3.15173,-0.61602 z m -43.38652,-2.23066 c -0.55115,-2.86191 -2.26503,-1.52167 -2.53284,1.98066 -0.25459,3.32947 -0.19228,3.4035 1.2789,1.51934 0.8506,-1.08936 1.41487,-2.66436 1.25394,-3.5 z m -173.6167,-8.61845 c -0.19331,-3.24549 -0.65334,-7.70089 -1.02228,-9.90088 -0.62983,-3.75565 -0.89902,-4.019 -4.40655,-4.31085 -5.14467,-0.42807 -5.49205,1.24946 -2.15399,10.40186 4.45512,12.21515 8.19542,14.09442 7.58282,3.80987 z m 173.85149,-0.40088 c 1.24188,-2.32049 3,-2.65271 3,-0.56689 0,1.50993 5.64814,1.94522 6.53891,0.50394 1.12656,-1.82283 -0.74524,-3.62374 -3.33901,-3.21256 l -2.6999,0.42802 2.39382,-1.93905 c 1.32941,-1.07684 2.0813,-2.4447 1.69098,-3.07626 -1.04717,-1.69435 -2.10657,-1.41048 -5.55031,1.48723 -4.58855,3.86102 -4.87973,2.12014 -0.66817,-3.99486 4.26504,-6.19266 5.63368,-10.25313 5.63368,-16.71405 0,-6.26802 2.19941,-13.07902 6.44426,-19.95622 3.77236,-6.11171 4.454,-8.95931 2.14463,-8.95931 -1.62548,0 -5.94855,4.86104 -8.20686,9.22813 -0.84995,1.64361 -1.98753,7.55217 -2.52798,13.13013 -1.33002,13.72715 -2.08531,16.15947 -7.33132,23.60946 -2.4875,3.53256 -4.52273,6.86203 -4.52273,7.39882 0,1.48481 3.13938,4.63347 4.6198,4.63347 0.72041,0 1.7915,-0.90001 2.3802,-2 z m -20.9963,-22.25001 c 0.002,-4.5375 0.90082,-15.12985 1.99731,-23.53856 2.24394,-17.20826 2.15397,-17.77454 -4.25564,-26.78616 -5.21795,-7.33619 -6.16554,-11.92547 -1.61136,-7.804 2.44291,2.2108 5.26406,1.04069 4.54164,-1.88372 -2.47408,-10.01531 -4.92233,-12.03355 -8.47636,-6.98756 -3.76485,5.34532 -3.70878,6.99293 0.44316,13.02135 l 3.83958,5.57491 -0.32691,23.57687 c -0.317,22.86322 0.59811,33.07688 2.96359,33.07688 0.48471,0 0.88295,-3.71251 0.88499,-8.25001 z m -5.39671,-63.33179 c -0.85118,-2.21812 -0.78614,-2.41821 0.78602,-2.41821 1.50843,0 2.84457,2.42909 1.87142,3.40223 -1.02841,1.02842 -2.0271,0.65862 -2.65744,-0.98402 z m -150.43733,62.58179 c -0.18169,-3.025 -0.66718,-5.85048 -1.07885,-6.27885 -0.41168,-0.42837 -3.33281,-0.47512 -6.4914,-0.10389 -5.5414,0.65128 -5.72044,0.76438 -5.10325,3.22348 0.3518,1.40168 1.27164,4.0611 2.04408,5.90981 1.34805,3.22633 1.59627,3.34901 6.1821,3.05537 l 4.77766,-0.30591 z m 82.50196,-3.49557 c 19.25875,-3.12352 35.34816,-9.96419 47.82838,-20.33496 6.37877,-5.3006 13.40455,-13.59825 12.38077,-14.62204 -0.22899,-0.22899 -3.30868,1.83126 -6.84375,4.57833 -12.36686,9.61017 -26.10342,15.98873 -43.1566,20.03977 -16.8064,3.99242 -55.7782,2.70583 -64.83338,-2.14035 -3.81213,-2.04018 -9.14486,-9.63484 -14.50558,-20.65823 -5.50487,-11.31981 -5.51148,-11.34482 -4.38741,-16.60191 1.12412,-5.25733 4.5138,-9.76503 7.34307,-9.76503 0.76208,0 2.87449,2.80956 4.69424,6.24346 4.71936,8.90552 15.58822,20.0304 23.25869,23.80655 18.7823,9.2465 48.97313,7.00471 76.518,-5.68178 9.0586,-4.17215 17.75514,-9.62718 16.18325,-10.15114 -0.63121,-0.21039 -4.63598,0.76903 -8.89948,2.17653 -21.6825,7.15795 -40.86505,10.02565 -63.02632,9.42215 -12.22269,-0.33284 -15.49034,-0.75361 -19.2255,-2.47561 -8.94983,-4.12612 -17.26548,-12.66678 -23.9886,-24.63776 -2.94123,-5.23706 -3.54298,-5.76882 -6.22402,-5.5 l -2.968,0.2976 -0.0142,-12.5 -0.0142,-12.5 3.77961,-0.62104 c 5.02075,-0.82498 9.82814,0.61144 13.7327,4.10327 3.00449,2.6869 3.1967,3.26944 3.1967,9.68828 0,6.82433 0.005,6.83557 6.14172,14.87821 11.42851,14.97704 14.7533,16.45127 37.10208,16.45127 19.06059,0 32.82072,-1.72917 49.04204,-6.16289 10.8638,-2.96937 17.10512,-5.95176 17.97041,-8.58711 0.50904,-1.55034 -2.6454,-1.62928 -6.44114,-0.1612 -1.54831,0.59885 -8.2151,2.17476 -14.8151,3.50204 -28.87122,5.80609 -71.12757,3.34227 -78.63655,-4.58501 -4.57068,-4.82531 -7.08422,-13.20547 -7.75846,-25.86672 l -0.60499,-11.36089 -3.5,-2.94759 c -2.8185,-2.37365 -4.08414,-2.82147 -6.5,-2.29984 -5.96692,1.28836 -5.75881,1.5204 -7.65097,-8.53079 -1.12831,-5.99357 -1.56831,-11.4714 -1.1921,-14.84115 l 0.59629,-5.34115 -3.0659,1.58544 c -6.536,3.37989 -7.66677,8.69904 -4.20022,19.75777 2.49996,7.9752 2.55758,10.09007 0.2629,9.65056 -2.39164,-0.45807 -5.30001,-9.49442 -5.97405,-18.56147 -0.58271,-7.8385 -1.5271,-8.78731 -4.97667,-5 -3.37267,3.70288 -4.29928,6.32892 -4.29928,12.18426 0,9.6096 -4.05585,5.5874 -4.97554,-4.93426 l -0.52446,-6 -4.04452,0.0711 c -3.27756,0.0576 -5.17384,0.97911 -10,4.85938 -7.58399,6.0976 -9.40566,8.39278 -9.43324,11.88523 -0.0432,5.46758 1.43276,6.68425 8.10865,6.68425 3.88212,0 7.08348,-0.60427 8.90647,-1.68114 2.83434,-1.67428 2.86445,-1.66408 7.38195,2.5 2.4948,2.29963 4.98023,4.18114 5.52316,4.18114 1.6057,0 2.72433,2.90184 5.97078,15.48881 1.83875,7.12911 2.71066,12.28728 2.1686,12.82934 -1.20671,1.20671 -6.49098,-6.16469 -8.70554,-12.144 -2.18418,-5.89731 -1.9874,-5.70592 -3.90012,-3.7932 -1.9586,1.95861 -3.5142,2.04296 -5.87261,0.31845 -1.65816,-1.21248 -1.53624,-1.59077 1.79945,-5.58334 2.75547,-3.29807 3.36294,-4.68483 2.64215,-6.03163 -1.96955,-3.68014 -3.55272,-4.23722 -8.50087,-2.99127 -2.5605,0.64475 -6.81894,0.91603 -9.46319,0.60286 -4.84164,-0.57342 -7.08112,0.37129 -7.08112,2.98713 0,0.70574 2.19384,2.39486 4.87521,3.75361 4.04277,2.04863 7.04719,5.14096 5.89833,6.07091 -3.08275,2.49535 -5.03623,2.47418 -9.77677,-0.10595 -2.72404,-1.4826 -5.69407,-3.51475 -6.60008,-4.51587 -1.5426,-1.70456 -1.44186,-2.14036 1.58525,-6.85771 3.30713,-5.15371 3.58931,-9.21121 0.71723,-10.31333 -2.35531,-0.90382 -9.79935,5.48613 -11.39937,9.78519 -3.0778,8.2697 -2.97273,8.75164 2.86977,13.16277 10.41857,7.8661 14.75562,8.72057 23.54179,4.63815 2.99029,-1.38941 3.4199,-1.34364 6.2405,0.6648 1.66603,1.18632 4.50806,2.39693 6.31562,2.69026 2.77145,0.44975 3.58122,1.24592 5.1672,5.08045 1.03439,2.50092 3.99638,6.76528 6.58219,9.47635 4.17238,4.37449 4.62779,5.28699 4.04665,8.10822 -0.55516,2.69511 -1.10453,3.18437 -3.60918,3.21429 -2.55364,0.0305 -2.96832,0.42464 -3.0574,2.90597 -0.0567,1.57887 -0.95668,3.5076 -2,4.28606 -4.11985,3.07397 -14.44317,-1.55683 -11.46644,-5.14357 0.69624,-0.83892 2.81715,-2.08625 4.71315,-2.77185 2.80356,-1.01379 3.39208,-1.701 3.1518,-3.68033 -0.41251,-3.39808 -4.27852,-5.91594 -11.19941,-7.29397 -5.64223,-1.12343 -5.98581,-1.07448 -7.75,1.10421 -2.37377,2.93148 -2.33666,3.32167 0.65396,6.87582 3.41744,4.0614 3.15821,5.81004 -1.06811,7.20485 -3.1588,1.0425 -4.1049,0.90134 -8.24749,-1.23051 -4.57522,-2.35449 -6.85093,-5.79197 -3.83445,-5.79197 2.30276,0 7.65005,-4.94528 7.65005,-7.07492 0,-2.19646 -19.20199,-22.53702 -22.16254,-23.47666 -2.45549,-0.77935 -4.76082,1.96109 -4.80566,5.71269 -0.0393,3.28902 4.24231,7.10084 11.66151,10.38196 4.53737,2.00664 5.30669,2.7421 5.30669,5.07316 0,2.61661 -2.43075,6.38377 -4.11912,6.38377 -0.44503,0 -4.28996,-3.13067 -8.5443,-6.95704 -5.89349,-5.30063 -8.04486,-6.70003 -9.03588,-5.87756 -2.16826,1.7995 -1.54692,8.19268 1.18789,12.22265 1.36872,2.01693 3.15977,4.96505 3.98009,6.55139 1.14105,2.20654 2.96473,3.37769 7.76141,4.98427 3.44845,1.15501 8.22834,3.21968 10.62198,4.58816 5.75234,3.28868 7.69056,3.14867 14.00802,-1.01187 2.92296,-1.925 5.47925,-3.5 5.68064,-3.5 0.20138,0 2.36251,2.025 4.80249,4.5 5.1672,5.24135 9.44376,5.9882 13.33839,2.32939 1.27078,-1.19384 2.56574,-1.91537 2.8777,-1.60342 0.31195,0.31196 -1.26127,5.41935 -3.49606,11.34976 -2.23479,5.93042 -4.06325,12.0254 -4.06325,13.5444 0,7.05596 -6.69324,3.09373 -8.77696,-5.19573 -0.74994,-2.98342 -1.78192,-5.8519 -2.29328,-6.3744 -1.63189,-1.66741 -1.0042,-3.55896 1.57024,-4.73195 3.26105,-1.48584 3.16067,-2.23691 -0.85102,-6.36762 -4.04924,-4.16936 -5.49724,-4.2841 -8.8397,-0.70043 -5.49706,5.89375 -6.10813,9.52698 -1.96287,11.67058 2.11055,1.0914 3.43987,3.09953 5.14194,7.76761 1.28674,3.52902 3.72728,7.72744 5.55358,9.55374 2.76696,2.76696 3.97728,3.25807 8.02933,3.25807 6.21581,0 8.42874,-1.95763 8.42874,-7.45635 0,-4.47027 4.19736,-20.14101 5.83274,-21.77639 1.32125,-1.32125 3.33722,2.67757 6.167,12.23274 2.57746,8.70315 7.33805,19.61078 9.6964,22.21673 1.29015,1.4256 2.60588,1.69452 6.22006,1.2713 2.52109,-0.29522 6.8338,-0.12872 9.5838,0.36999 8.2524,1.49656 35.05785,1.28674 45.17162,-0.35359 z M 316.88342,301.78622 c -0.81351,-1.31629 1.24957,-5.02873 2.77241,-4.98887 1.65988,0.0435 4.71482,2.45476 4.71482,3.72145 0,2.05408 -6.33797,3.12695 -7.48723,1.26742 z m -2.80392,-36.64515 c -1.74142,-1.74142 -0.61818,-3.49793 2.04115,-3.19194 1.63715,0.18837 2.75,0.92343 2.75,1.81642 0,1.57227 -3.56958,2.59708 -4.79115,1.37552 z M 307.62065,247.632 c -0.6875,-0.69654 -1.25,-1.61079 -1.25,-2.03165 0,-1.41412 6.19269,-7.8348 7.55659,-7.8348 1.99141,0 3.75839,7.1136 2.16322,8.70877 -1.9153,1.9153 -7.03178,2.61463 -8.46981,1.15768 z m 114.17342,95.62607 c 13.01507,-1.96167 27.65584,-7.05689 37.66626,-13.10845 8.14844,-4.92594 22.91032,-18.45986 22.91032,-21.00453 0,-0.75875 -0.15612,-1.37954 -0.34693,-1.37954 -0.19081,0 -4.12831,2.54464 -8.75,5.65475 -21.49348,14.46381 -44.95038,21.36768 -72.40307,21.3098 -14.45807,-0.0305 -32.9717,-2.73315 -37.05647,-5.40959 -1.38637,-0.90839 -4.64082,-4.41634 -7.2321,-7.79545 -6.69321,-8.72813 -8.21065,-10.16029 -9.45109,-8.91985 -1.28126,1.28126 8.74733,19.43964 13.53029,24.49878 2.87633,3.04241 4.19521,3.56319 12.70937,5.01847 13.12201,2.24286 14.01152,2.32481 27,2.48737 6.325,0.0792 15.96554,-0.52913 21.42342,-1.35176 z m -136.79932,-7.95533 c 0.89728,-2.33828 -2.39953,-10.88175 -6.83946,-17.72405 -7.49926,-11.55696 -9.26252,-16.36963 -9.2742,-25.31314 -0.008,-6.47611 0.42045,-8.76194 2.25159,-12 4.35666,-7.70396 8.46768,-16.60363 7.92184,-17.14946 -1.00231,-1.00231 -2.45764,0.58689 -5.54159,6.05134 -1.85012,3.27824 -5.58816,7.5043 -9.50855,10.74997 -8.10234,6.70786 -9.20953,8.96471 -7.19674,14.66957 2.91886,8.27293 9.85066,20.24863 15.17285,26.21332 5.34172,5.98657 5.95748,7.32328 4.78317,10.38347 -1.43117,3.72957 -11.99351,0.0787 -17.31851,-5.98614 -3.59609,-4.09572 -4.0745,-4.20516 -4.0745,-0.93207 0,1.48556 -0.57259,2.5 -1.41111,2.5 -1.98337,0 -6.57044,-5.71719 -6.68078,-8.32673 -0.31883,-7.54025 -0.47732,-8.14999 -2.20615,-8.48745 -2.34706,-0.45814 -4.70196,1.54843 -4.70196,4.00645 0,5.15227 12.62407,18.29458 16.81026,17.50035 1.62028,-0.30741 2.76411,0.25435 3.82989,1.88094 1.62637,2.48215 3.8827,2.92304 16.64123,3.25174 5.14692,0.1326 6.91668,-0.17787 7.34272,-1.28811 z m -33.6241,-1.6269 c 0,-1.32511 -4.05634,-4.83084 -5.64301,-4.87702 -1.71406,-0.0499 -2.55239,3.02637 -1.2518,4.59348 1.35009,1.62676 6.89481,1.85479 6.89481,0.28354 z m -10.35724,-3.62305 c 1.28395,-5.11567 -1.19465,-12.89583 -5.81845,-18.26374 -2.59393,-3.01136 -4.64064,-4.60717 -5.1963,-4.05151 -1.41812,1.41812 1.10879,6.4573 4.49251,8.959 2.41191,1.7832 2.93536,2.83341 2.68741,5.39178 -0.23132,2.38676 -0.852,3.25468 -2.49473,3.4885 -2.8726,0.40888 -4.78398,-2.68098 -6.37854,-10.31127 -2.02228,-9.67711 -2.58062,-9.31898 -3.27951,2.10356 -0.36315,5.93522 -0.31075,11.14084 0.11645,11.56804 1.40466,1.40466 8.66516,3.6861 11.95935,3.75794 2.70601,0.059 3.34157,-0.37028 3.91181,-2.6423 z m 299.55733,-0.69902 c -0.31345,-2.68498 0.0489,-3.65109 1.7008,-4.53518 1.65097,-0.88357 2.09911,-2.0766 2.09911,-5.58822 0,-2.50867 -0.46948,-4.46482 -1.07157,-4.46482 -0.58936,0 -0.92686,1.2375 -0.75,2.75 0.24581,2.10211 -0.23015,2.9856 -2.02022,3.75 -2.0908,0.89282 -2.2792,1.46442 -1.75777,5.33293 0.84757,6.28809 2.50906,8.83186 1.79965,2.75529 z m -164.25759,-0.33822 c -0.0671,-0.87575 -12.68011,-10.75 -13.73162,-10.75 -0.39098,0 -0.84833,0.96409 -1.01633,2.14242 -0.20648,1.44823 0.66255,2.8317 2.68202,4.26969 5.20104,3.70347 12.2105,6.22348 12.06593,4.33789 z m 149.68828,-6 c 7.49647,-7.36637 11.94741,-15.04269 12.90114,-22.25 l 0.59548,-4.5 -3.8137,6.99065 c -2.09753,3.84486 -6.56005,9.91986 -9.9167,13.5 -5.98151,6.37978 -8.397,9.81548 -8.397,11.94361 0,2.17133 1.93,0.90023 8.63078,-5.68426 z m -252.63078,4.95263 c 0,-0.77743 -12.58881,-11.20263 -13.52759,-11.20263 -0.79635,0 -0.49381,4.41794 0.39897,5.82613 2.2332,3.52244 13.12862,7.9844 13.12862,5.3765 z m -50.71462,-7.70792 c 0.9663,-4.42309 0.23607,-15.83744 -1.40285,-21.92819 -1.9481,-7.23977 -7.04411,-16.64872 -13.08278,-24.15523 -6.42779,-7.99021 -9.34892,-10.26213 -11.03135,-8.57969 -1.92152,1.92152 1.00074,7.02089 7.51612,13.11571 9.11612,8.52768 15.71548,22.0637 15.71548,32.23419 0,7.27272 -5.65855,3.34911 -6.81936,-4.72852 -0.89648,-6.23816 -3.15314,-7.76689 -6.6357,-4.4952 -1.50372,1.41267 -2.54494,3.49176 -2.54494,5.08168 0,3.68726 3.72051,8.26689 6.19118,7.6208 1.38446,-0.36205 2.18865,0.20857 2.88861,2.04961 1.64175,4.31811 5.04944,8.41189 6.73234,8.08779 0.95353,-0.18363 1.95334,-1.92309 2.47325,-4.30295 z m -14.85562,-10.81717 c -0.77982,-2.03216 0.10823,-4.67754 1.57024,-4.67754 1.88286,0 2.32276,3.10581 0.67349,4.75508 -1.46667,1.46667 -1.65365,1.46021 -2.24373,-0.0775 z m 223.07024,7.76109 c 12.614,-1.65562 25.83942,-5.00208 37.42327,-9.46929 7.5644,-2.91714 9.94344,-4.43596 8.77638,-5.60302 -0.27533,-0.27534 -5.1579,0.86346 -10.85013,2.53066 -19.8189,5.80477 -26.12216,6.59963 -52.34952,6.60141 -20.62482,0.001 -24.43247,-0.23538 -27.07515,-1.68364 -3.60291,-1.97449 -8.12209,-6.94808 -14.54632,-16.00898 -3.22518,-4.54887 -5.86032,-7.0904 -8.72183,-8.41201 -4.48273,-2.07035 -4.84074,-3.52724 -1.08256,-4.40547 3.06549,-0.71635 3.94049,-6.20964 1.43083,-8.98279 -3.76228,-4.15727 -12.95487,-3.17785 -12.31565,1.31216 0.25515,1.79232 1.07024,2.23731 4.56068,2.48985 2.3375,0.16912 4.25,0.64518 4.25,1.05794 0,0.41273 -1.9125,1.17436 -4.25,1.6925 -3.49827,0.77543 -4.30222,1.38964 -4.54524,3.47255 -0.25831,2.21397 0.24203,2.67857 4,3.71422 6.71867,1.85159 10.24823,4.59065 14.42731,11.19609 2.12736,3.3625 5.21793,8.22109 6.86793,10.79686 4.29654,6.70721 9.67958,10.14879 17.53284,11.2094 7.70078,1.04003 21.35331,0.4753 36.46716,-1.50844 z m -71.521,-1.68863 c -0.0279,-2.9927 -7.89845,-15.23055 -9.05281,-14.07619 -0.48878,0.48878 -1.15764,2.23343 -1.48635,3.877 -0.50243,2.51214 0.0658,3.74209 3.56623,7.71875 4.53357,5.1504 7.00606,6.02992 6.97293,2.48044 z m 167.06076,-3.44806 c 1.78582,-2.03394 4.75051,-6.87144 6.58821,-10.75 3.45415,-7.29021 7.12747,-20.12984 6.0634,-21.19391 -1.39139,-1.39138 -3.92855,0.92487 -5.89327,5.38016 -1.15494,2.61899 -2.93199,5.34983 -3.949,6.06851 -1.33354,0.94237 -1.86426,2.61529 -1.90348,6 -0.0664,5.73303 -2.9187,13.56443 -5.09278,13.98312 -1.56312,0.30103 -4.85284,-5.97022 -4.85284,-9.25104 0,-2.35061 -2.00369,-2.84542 -4.04426,-0.99873 -2.45273,2.2197 -4.17031,0.94344 -7.45574,-5.54005 -1.28919,-2.5441 -3.05409,-5.21496 -3.92199,-5.93526 -1.71328,-1.42189 -2.14227,-4.06474 -0.6598,-4.06474 0.50502,0 1.61053,-0.26567 2.45669,-0.59036 0.99314,-0.38111 2.90996,0.89494 5.40772,3.59999 3.22883,3.49682 4.4939,4.19037 7.64331,4.19037 6.24025,0 7.53299,-3.3912 1.77485,-4.6559 -1.52695,-0.33537 -5.43406,-2.37474 -8.68245,-4.53192 l -5.90618,-3.92217 -3.55607,1.9377 c -1.95585,1.06573 -4.89499,2.42289 -6.53144,3.01592 l -2.97535,1.07824 3.63183,3.18906 c 1.99751,1.75399 5.22502,5.74795 7.17225,8.87546 3.79263,6.0915 6.01445,7.81362 10.08089,7.81362 2.08234,0 2.56574,0.47958 2.56574,2.54544 0,3.00687 4.08755,7.45456 6.85095,7.45456 1.06803,0 3.40299,-1.66413 5.18881,-3.69807 z m -288.59553,-4.2117 c 0.86297,-1.39631 -0.48801,-4.09024 -2.05122,-4.09024 -0.76615,0 -1.39301,0.825 -1.39301,1.83333 0,2.8474 2.19169,4.28356 3.44423,2.25691 z m 12.57773,-7.34024 c 0.0284,-10.65178 2.03514,-15.26071 8.86477,-20.3595 2.78283,-2.07758 4.85498,-3.98211 4.60479,-4.23232 -0.2502,-0.2502 -3.50065,1.07436 -7.22322,2.94346 -6.63706,3.33247 -7.93399,4.7507 -10.42353,11.39836 l -1.12349,3 -1.49633,-3.75 c -0.82299,-2.0625 -2.07347,-3.75 -2.77886,-3.75 -2.62748,0 -4.62642,1.34411 -5.52885,3.71767 -0.51125,1.34469 -1.48928,2.24621 -2.17339,2.00338 -1.60021,-0.56801 -1.13029,-4.63656 0.77922,-6.74654 2.45992,-2.71818 1.79756,-4.13342 -1.77307,-3.78848 l -3.25,0.31397 0,-4.83317 c 0,-4.05491 -0.4518,-5.22233 -2.80576,-7.25 -1.54317,-1.32926 -3.86887,-2.41683 -5.16822,-2.41683 -5.22087,0 -7.97402,-3.51323 -3.27602,-4.18045 3.16119,-0.44896 3.56973,-5.50771 0.73577,-9.11051 -2.18634,-2.77947 -7.18482,-4.69359 -10.23577,-3.91968 -2.16581,0.54938 -2.28017,3.52575 -0.20174,5.25069 1.73674,1.44137 1.58548,5.09472 -0.23576,5.69412 -1.88205,0.61942 -5.3125,-3.478 -5.3125,-6.34539 0,-1.56077 1.5503,-4.47732 3.85375,-7.25 5.08538,-6.12129 6.14625,-8.297 6.14625,-12.60515 0,-3.8774 -2.36431,-10.53363 -3.74157,-10.53363 -0.46399,0 -1.36654,1.9125 -2.00566,4.25 -0.63912,2.3375 -3.20745,6.72181 -5.7074,9.74291 -4.60687,5.56723 -5.39714,7.75532 -3.48984,9.66263 0.58055,0.58054 1.45295,3.86711 1.93868,7.30349 1.02728,7.26769 3.06545,10.03399 7.41078,10.05825 1.96013,0.0109 3.93748,0.90577 5.39257,2.44036 1.26366,1.3327 4.03558,3.23743 6.15981,4.23273 3.33091,1.56069 3.94906,2.37561 4.49333,5.92373 0.38526,2.51154 1.61501,5.03847 3.15701,6.48709 2.01394,1.892 2.40775,3.00284 1.94294,5.48049 -0.67142,3.57902 2.06056,7.8621 5.72544,8.97609 1.22315,0.3718 3.12391,1.75081 4.22391,3.06448 1.71841,2.05219 9.48046,6.83725 11.75,7.2435 0.4125,0.0738 0.75988,-3.57824 0.77196,-8.11575 z m -11.52818,-1.39908 c -0.9892,-0.9892 -1.42339,-2.48975 -1.08508,-3.75 0.31019,-1.1555 0.57014,-2.43842 0.57765,-2.85092 0.0377,-2.07194 1.97533,-0.31188 3.30263,3 2.08393,5.19981 0.65042,7.04654 -2.7952,3.60092 z m -26.37192,-41.62906 c -1.52316,-1.52316 -1.41792,-3.72186 0.17814,-3.72186 1.38315,0 3.7,1.93677 3.7,3.09302 0,1.30496 -2.75526,1.75172 -3.87814,0.62884 z m 160.86169,50.52814 c -0.0433,-1.97367 -4.73831,-8.77167 -6.26061,-9.06484 -2.81504,-0.54213 -2.03823,2.89433 1.47323,6.51723 3.08758,3.18558 4.82161,4.10834 4.78738,2.54761 z M 221.2917,285.41069 c -6.20223,-10.93928 -10.53284,-16.64514 -12.63324,-16.64514 -1.17474,0 -0.92116,0.77748 1.06,3.25 5.08439,6.34541 10.66879,17.0081 13.39148,25.56927 l 2.76071,8.68073 0.30303,-5.85486 c 0.2828,-5.46399 -0.0431,-6.46541 -4.88198,-15 z m 303.07895,14.09041 c 0,-2.20471 -0.41135,-2.80419 -1.75,-2.55032 -1.87246,0.3551 -2.87897,4.74662 -1.75315,7.64924 0.58275,1.50248 0.78584,1.4755 2.07457,-0.2756 0.78572,-1.06762 1.42858,-3.23812 1.42858,-4.82332 z m -328.46287,-2.05569 c -3.68015,-8.32145 -5.44979,-15.23069 -7.07353,-27.61736 -1.54971,-11.82182 -3.25365,-19.0625 -4.48596,-19.0625 -0.93966,0 -1.98186,7.91616 -1.96028,14.88958 0.0365,11.80689 3.7834,23.10679 10.89598,32.86042 4.24819,5.82562 5.45562,5.33316 2.62378,-1.07014 z m 36.2337,4.13264 c -0.61807,-1.85422 -2.77083,-2.16176 -2.77083,-0.39583 0,0.87083 0.7125,1.58333 1.58333,1.58333 0.87084,0 1.40521,-0.53438 1.1875,-1.1875 z m 106.22917,-0.75348 c 0,-2.5212 -1.71458,-3.54079 -3.48436,-2.072 -1.82078,1.51111 -0.82866,4.01298 1.59135,4.01298 1.20716,0 1.89301,-0.70323 1.89301,-1.94098 z M 202.0569,296.49314 c -0.32208,-2.34983 -0.21682,-4.8691 0.2339,-5.59839 1.12082,-1.81352 4.12665,-1.06062 5.47267,1.3708 1.58403,2.86138 2.85303,3.54085 4.32753,2.31712 1.90171,-1.57827 -1.68764,-6.956 -9.88962,-14.81712 -5.91314,-5.66739 -6.92344,-7.17134 -7.88723,-11.741 -1.46275,-6.93547 -3.49858,-8.3254 -2.60084,-1.77569 0.36154,2.63771 0.65734,6.02023 0.65734,7.51671 0,1.49649 1.16153,4.4325 2.58119,6.52448 2.20131,3.24382 2.40552,4.13183 1.38757,6.03387 -1.41865,2.65077 -0.0489,7.79875 3.16075,11.87915 2.78235,3.53718 3.23449,3.23479 2.55674,-1.70993 z M 499.37065,298.58 c 0,-1.37317 -3.95232,-5.81445 -5.17431,-5.81445 -1.73838,0 -0.72248,3.95888 1.39682,5.4433 2.65888,1.86235 3.77749,1.97226 3.77749,0.37115 z m -166,-1.69201 c 0,-2.2521 -2.49428,-4.55303 -3.9562,-3.64951 -1.3932,0.86105 -1.32142,2.84945 0.1562,4.32707 1.80126,1.80126 3.8,1.44487 3.8,-0.67756 z m 32,-1.54986 c 0,-1.44539 -4.54363,-5.57258 -6.13486,-5.57258 -1.33169,0 -1.03129,1.81679 0.74987,4.53518 1.74493,2.66311 5.38499,3.36435 5.38499,1.0374 z m 48.73365,-0.25488 c 0.21333,-0.65026 -0.4773,-1.64532 -1.53474,-2.21125 -2.32584,-1.24475 -5.94164,0.88278 -4.75725,2.79916 0.91994,1.48848 5.75911,1.03633 6.29199,-0.58791 z m 8.53571,0.4323 c 0.6862,-1.96721 -0.32964,-3.75143 -2.12635,-3.73469 -2.64295,0.0246 -4.48352,1.65496 -3.82011,3.38377 0.72456,1.88817 5.31573,2.15911 5.94646,0.35092 z m 7.73569,0.2473 c 1.23525,-0.66109 2.08221,-0.66512 2.48596,-0.0118 0.97059,1.57044 19.96632,0.38036 30.09785,-1.88561 10.57615,-2.36542 18.41626,-5.48215 18.39909,-7.31431 -0.007,-0.70705 -1.13162,-3.24397 -2.5,-5.63761 -1.36837,-2.39364 -2.48795,-4.747 -2.48795,-5.22968 0,-0.48268 1.8,-1.79589 4,-2.91825 2.2,-1.12236 4,-2.47885 4,-3.01443 0,-0.53558 -3.9375,-3.4996 -8.75,-6.58672 -18.48591,-11.85835 -23.25,-16.95214 -23.25,-24.85905 0,-1.94691 -0.46114,-3.53984 -1.02475,-3.53984 -1.59028,0 -2.97525,4.63706 -2.97525,9.96151 0,4.21592 0.42129,5.20121 3.30748,7.73531 1.81911,1.5972 8.34411,5.73494 14.5,9.19497 6.15588,3.46003 11.19252,6.65106 11.19252,7.09118 0,0.44012 -1.12181,1.08177 -2.49292,1.4259 -1.98293,0.49768 -3.65516,-0.32098 -8.17424,-4.00182 -4.67864,-3.81081 -12.87883,-8.40705 -14.99908,-8.40705 -1.32526,0 0.63915,2.15433 5.33275,5.84832 2.84157,2.23641 6.40264,5.68686 7.91348,7.66767 l 2.74699,3.60148 -2.07251,2.07251 c -1.47042,1.47041 -2.79051,1.8923 -4.544,1.4522 -2.82564,-0.70919 -4.33435,-4.46555 -2.13285,-5.31034 2.30273,-0.88364 1.63196,-3.30166 -1.21631,-4.38457 -3.22818,-1.22735 -3.85543,-0.73905 -2.44233,1.90134 1.27687,2.38586 1.44771,8.15139 0.24154,8.15139 -0.46172,0 -1.40128,1.233 -2.08792,2.74001 -1.17751,2.58436 -1.32472,2.63569 -2.59125,0.9036 -0.73854,-1.01002 -1.65258,-4.83052 -2.03118,-8.49001 -0.74296,-7.18118 -2.06543,-10.74402 -5.95807,-16.05148 -1.37065,-1.86883 -2.4921,-4.65478 -2.4921,-6.19098 0,-1.53621 -0.45,-3.07122 -1,-3.41114 -0.6073,-0.37533 -1,1.06638 -1,3.67127 0,3.1916 0.93735,5.80792 3.66277,10.22344 3.09552,5.01514 3.77056,7.16018 4.35881,13.85076 0.51684,5.87831 1.20016,8.42071 2.65396,9.87451 2.38981,2.38982 5.09819,1.60537 6.41496,-1.85802 0.69485,-1.82758 1.38637,-2.27638 2.6734,-1.73502 3.67693,1.54662 6.47202,1.68476 8.80674,0.43526 2.64373,-1.41489 3.98236,-0.84569 3.14473,1.33715 -1.20386,3.13722 -16.1598,7.55887 -21.24789,6.28184 -1.39476,-0.35006 -2.71193,-1.82246 -3.42189,-3.82516 -1.0884,-3.07024 -1.23401,-3.14902 -2.55188,-1.3806 -1.5198,2.03937 -5.06746,1.50312 -4.1934,-0.63386 0.2793,-0.68286 0.81691,-2.01023 1.19468,-2.9497 0.51785,-1.28783 0.0313,-1.87265 -1.97728,-2.37678 -3.08395,-0.77402 -4.21546,0.0922 -4.68303,3.58491 -0.18408,1.375 -0.78468,2.275 -1.33468,2 -0.55,-0.275 -0.8354,-1.4 -0.63422,-2.5 0.80486,-4.40072 0.58406,-6 -0.82835,-6 -0.80442,0 -1.88201,1.4625 -2.39466,3.25 -0.51265,1.7875 -1.36948,3.25 -1.90406,3.25 -0.53459,0 -0.68366,-1.0125 -0.33127,-2.25 1.94052,-6.81464 1.94249,-7.96404 0.013,-7.59246 -1.09677,0.21122 -2.50074,2.01076 -3.39526,4.35188 -0.83887,2.19545 -1.91823,4.60083 -2.39858,5.34528 -1.15837,1.79524 -8.52662,5.09567 -11.4379,5.12334 -2.15935,0.0205 -2.26882,-0.26116 -1.66537,-4.28522 0.61475,-4.09945 0.44876,-4.48528 -3.44161,-8 -4.49137,-4.05768 -8.16986,-4.72026 -11.85924,-2.13612 -2.83178,1.98345 -2.79168,3.07497 0.32855,8.9433 3.69941,6.95763 0.0487,9.40387 -4.24279,2.84295 -2.85862,-4.37036 -2.343,-20.30873 1.01839,-31.47947 1.98829,-6.6076 2.38932,-9.36702 1.70704,-11.74598 -1.35374,-4.72021 -4.95389,-9.1862 -8.65024,-10.73063 -3.46085,-1.44604 -8.59196,-1.84503 -9.68397,-0.75302 -0.34861,0.34861 1.15347,2.66433 3.33797,5.14605 5.91778,6.72295 6.96254,11.51476 6.96254,31.93372 0,23.29324 1.04239,25.67777 11.77863,26.94441 3.85266,0.45453 5.62275,0.0772 9.62031,-2.05051 2.69442,-1.43413 6.52239,-2.60752 8.5066,-2.60752 1.98422,0 5.07128,-0.41976 6.86013,-0.9328 3.03513,-0.87046 3.36046,-0.7201 4.86838,2.25 1.74518,3.43741 3.34705,5.6828 4.05414,5.6828 0.24381,0 1.2864,-0.45122 2.31686,-1.0027 z m -34.80509,-14.85354 c -1.33561,-3.83133 -0.20506,-5.43413 3.22566,-4.57307 3.28012,0.82326 4.12004,2.54122 2.6162,5.35117 -1.62083,3.02855 -4.65577,2.62432 -5.84186,-0.7781 z m -68.40016,8.77852 c 0.1712,-1.472 -0.5526,-3.61676 -1.68735,-5 -1.61821,-1.97254 -2.3237,-2.21789 -3.7998,-1.32142 -2.5565,1.55262 -2.9518,6.45861 -0.65569,8.13757 2.81872,2.0611 5.79421,1.18139 6.14284,-1.81615 z m -11.2998,-2.92228 c 0,-3.06667 -0.30952,-3.5 -2.5,-3.5 -1.85467,0 -2.58495,0.59957 -2.82908,2.32273 -0.50992,3.59911 0.56925,5.35317 3.07461,4.99741 1.84889,-0.26255 2.25447,-0.94979 2.25447,-3.82014 z m -136.68444,-2.68406 c -1.83005,-4.13711 -1.98391,-5.74265 -1.3177,-13.75 0.41486,-4.98627 0.81006,-12.41226 0.87821,-16.50221 l 0.12393,-7.43627 -4.75,-2.44881 c -4.8114,-2.48047 -6.308,-5.17865 -2.87245,-5.17865 2.74561,0 4.30094,-2.40391 4.88016,-7.54279 0.49101,-4.35622 0.32193,-4.72373 -4.14046,-8.99945 -5.00914,-4.79961 -7.42384,-5.46381 -9.84398,-2.70776 -2.54918,2.90301 -2.98802,5.93405 -1.3248,9.15037 0.85334,1.65017 1.55153,3.47266 1.55153,4.04997 0,1.96311 -3.00884,1.05861 -6.00578,-1.80542 -2.42561,-2.31804 -4.18017,-2.96645 -9.32785,-3.44715 -6.04933,-0.56489 -11.66637,-2.31542 -11.66637,-3.63577 0,-2.06314 8.70389,-12.062 10.49982,-12.062 0.60912,0 3.45723,1.17093 6.32914,2.60206 6.20557,3.09237 8.18719,2.7879 13.94786,-2.14301 5.01906,-4.29613 5.27341,-6.56266 1.19424,-10.64183 -2.65419,-2.65419 -3.48931,-2.94642 -6.75,-2.36202 -8.84571,1.5854 -11.5573,2.83759 -17.04264,7.87016 -11.25227,10.32348 -12.16624,10.80628 -19.82515,10.47245 -5.55713,-0.24221 -6.89457,-0.62288 -7.16461,-2.03924 -0.21639,-1.13501 0.9245,-2.48279 3.27622,-3.87034 3.32065,-1.95924 6.53512,-6.30671 6.53512,-8.83856 0,-0.57732 -1.08333,-1.04966 -2.40741,-1.04966 -3.15232,0 -15.59916,12.25931 -15.57728,15.34259 0.0234,3.29143 1.39675,4.78821 5.10543,5.56414 l 3.37926,0.70701 -2.97189,1.44313 c -3.38465,1.64356 -3.74816,2.77095 -1.37593,4.26732 1.16851,0.73708 3.26032,0.65638 7.14548,-0.27565 6.05706,-1.45307 6.80159,-1.34588 21.20234,3.05266 22.41746,6.84714 22.87862,7.03766 27.29389,11.27649 l 4.29389,4.1223 -0.68722,15.65213 c -0.68509,15.60373 -0.67981,15.65953 1.70892,18.04825 1.31787,1.31788 3.19274,3.61192 4.16638,5.09788 2.84248,4.33817 3.79378,3.1134 1.5397,-1.98232 z m -13.81556,-54.31594 c 0,-4.40135 1.14554,-4.98721 4.77749,-2.44329 2.67774,1.87556 2.8089,3.27768 0.47251,5.05125 -3.46282,2.62865 -5.25,1.74086 -5.25,-2.60796 z M 154.02346,208.9344 c -2.16351,-2.39064 -1.23061,-3.17226 3.76386,-3.15353 5.39028,0.0202 7.43449,1.25417 5.64658,3.40847 -1.79008,2.15692 -7.36441,2.00591 -9.41044,-0.25494 z m 152.68489,76.65755 c 0.53933,-0.855 0.68435,-2.32656 0.32227,-3.27011 -0.51939,-1.35353 -1.34435,-1.56859 -3.90914,-1.01911 -4.37853,0.93805 -4.4461,1.09383 -1.72908,3.98598 2.53346,2.69673 3.76197,2.76681 5.31595,0.30324 z m 223.3399,0.4236 c 0.33815,-0.9625 2.28499,-4.00836 4.32629,-6.76859 4.01683,-5.43149 4.03703,-7.3581 0.11414,-10.8864 -2.07098,-1.86266 -2.16402,-1.86337 -4.18831,-0.0314 -1.58224,1.43191 -1.93129,2.61449 -1.48067,5.0165 0.84313,4.49425 -1.18577,5.8481 -7.62174,5.08585 -5.83357,-0.6909 -9.38086,-3.35677 -10.35237,-7.78006 -0.34585,-1.57463 -0.94024,-3.05543 -1.32087,-3.29067 -1.38836,-0.85806 -14.81244,2.23788 -20.65407,4.76336 -3.3,1.42667 -6.5625,2.60463 -7.25,2.61768 -1.8417,0.035 -1.52575,2.44205 0.84878,6.46658 2.33817,3.96291 3.38351,4.21814 8.50753,2.07719 3.00925,-1.25735 3.4933,-1.89666 3.21788,-4.25 -0.28104,-2.40134 0.26969,-3.06951 4.1377,-5.02003 2.45404,-1.2375 5.49154,-2.25 6.75,-2.25 1.94189,0 2.28811,0.5219 2.28811,3.44911 0,2.7818 0.69311,3.97777 3.58245,6.18158 3.82072,2.9142 12.43204,6.28276 16.19893,6.33666 1.29309,0.0185 2.54773,-0.72545 2.89622,-1.71736 z m -43.9901,-5.89583 c -1.3041,-1.3041 -0.68149,-2.35417 1.39583,-2.35417 1.16375,0 1.90861,0.52417 1.6875,1.1875 -0.48711,1.46134 -2.15686,2.09314 -3.08333,1.16667 z M 379.73471,268.51535 c -0.14443,-19.38925 -1.06811,-25.19116 -4.64831,-29.19722 -2.95279,-3.30402 -16.53413,-10.83625 -18.31003,-10.15477 -1.71228,0.65706 -1.7802,5.31504 -0.12028,8.24895 0.66801,1.18071 4.41681,5.10457 8.33068,8.71968 3.91387,3.61511 7.59471,7.82407 8.17965,9.35325 0.58494,1.52917 1.26137,7.28031 1.50318,12.78031 0.40265,9.15848 2.70514,18.50039 4.55963,18.4998 0.35278,-1.2e-4 0.58025,-8.21262 0.50548,-18.25 z m 33.63594,8.63222 c 0,-0.3399 -1.40747,-2.22101 -3.12771,-4.18025 -4.55433,-5.1871 -8.56468,-14.3708 -9.84755,-22.55091 -0.6168,-3.93297 -1.54429,-8.4776 -2.06109,-10.09918 -0.77306,-2.42564 -0.56863,-3.34325 1.15312,-5.17597 2.55989,-2.72488 1.73903,-4.37571 -2.17579,-4.37571 -2.28946,0 -2.94098,-0.45001 -2.94098,-2.03138 0,-1.11726 0.675,-2.29041 1.5,-2.60699 2.12055,-0.81373 1.91644,-4.36457 -0.25,-4.34925 -1.82264,0.0129 -6.25,5.92866 -6.25,8.35116 0,0.76537 0.675,1.95178 1.5,2.63647 0.825,0.68468 1.5,2.22478 1.5,3.42244 0,1.19765 0.44697,2.62453 0.99327,3.17083 0.5463,0.5463 1.85219,5.6988 2.90199,11.45 2.3852,13.06711 4.69788,18.45299 9.96822,23.21443 3.687,3.33097 7.13652,4.84116 7.13652,3.12431 z m -193,-1.38202 c 0,-0.55 -0.45,-1 -1,-1 -0.55,0 -1,0.45 -1,1 0,0.55 0.45,1 1,1 0.55,0 1,-0.45 1,-1 z m 199.8,-1.2 c 1.67377,-1.67377 1.49671,-5.93137 -0.3567,-8.57749 -1.90953,-2.72623 -3.7999,-2.92142 -2.97001,-0.30667 0.33444,1.05372 0.15588,2.19531 -0.39679,2.53688 -1.08565,0.67097 -4.22869,-3.87272 -8.47374,-12.24993 l -2.67012,-5.26923 3.03368,-8.83546 c 1.66852,-4.85951 3.03368,-10.14443 3.03368,-11.74428 0,-2.89203 -2.37865,-7.35382 -3.92045,-7.35382 -0.44387,0 -1.04168,4.1625 -1.32847,9.25 -0.28678,5.0875 -1.2631,11.37914 -2.16959,13.98141 -1.53231,4.3988 -1.53147,5.13692 0.012,10.5 2.33879,8.12679 4.73299,12.47002 8.88243,16.11327 3.87982,3.40652 5.45294,3.8265 7.32412,1.95532 z m 23,0 c 1.59963,-1.59963 1.52054,-4.28909 -0.16732,-5.68989 -1.04328,-0.86584 -1.68173,-0.75594 -2.69399,0.46376 -0.92044,1.10906 -2.23323,1.41722 -4.28737,1.00639 -3.98188,-0.79637 -5.65132,-2.34256 -5.65132,-5.23409 0,-1.32492 -0.675,-2.66796 -1.5,-2.98454 -2.2433,-0.86083 -1.86304,-2.3172 2.11198,-8.08874 2.72886,-3.96218 3.45769,-5.85915 2.98095,-7.75866 -0.67676,-2.6964 -2.73648,-3.29884 -4.32235,-1.26423 -0.53587,0.6875 -1.80882,3.725 -2.82878,6.75 -2.41371,7.15861 -3.30027,8.36235 -5.07448,6.88989 -1.79953,-1.49348 -1.72694,-3.41141 0.24292,-6.41778 1.75779,-2.68273 1.15623,-7.89426 -0.83462,-7.23064 -1.82612,0.6087 -2.10587,2.75853 -0.35895,2.75853 2.34591,0 1.92052,1.48159 -0.85132,2.96503 -3.38755,1.81296 -3.05183,7.42075 0.62327,10.41064 1.43614,1.16838 2.78716,3.02433 3.00226,4.12433 0.26936,1.37746 1.0787,1.92585 2.60011,1.76179 1.2787,-0.13788 2.20901,0.31513 2.20901,1.07569 0,4.47958 11.68194,9.58058 14.8,6.46252 z m 9.68998,-5.64336 c -0.89286,-0.89285 -2.48998,1.1826 -2.48998,3.23571 0,3.72514 1.43634,4.01803 2.16771,0.44203 0.37355,-1.82645 0.51857,-3.48143 0.32227,-3.67774 z m 71.51002,5.4658 c 0,-2.0185 -2.01128,-3.35214 -6.25,-4.14424 -3.02571,-0.56543 -3.75,-0.40052 -3.75,0.85381 0,0.85502 1.00013,2.2551 2.22251,3.11129 2.7876,1.95251 7.77749,2.06745 7.77749,0.17914 z m -129.56858,-5.94864 c 1.26733,-0.92668 1.60584,-1.98103 1.12374,-3.5 -0.82519,-2.59995 -2.25354,-2.75673 -4.72642,-0.51881 -4.04255,3.65845 -0.82025,7.25294 3.60268,4.01881 z m 134.25794,-3.30668 c 0.31702,-0.82612 -0.0459,-2.6654 -0.80648,-4.08727 -1.75594,-3.28265 -11.09104,-10.22242 -15.32239,-11.39075 -1.8755,-0.51786 -4.57354,-2.56623 -6.44107,-4.89011 -1.77044,-2.20308 -4.09068,-3.99899 -5.16654,-3.99899 -2.36146,0 -2.3704,-0.60117 0.0873,5.86504 1.87464,4.93227 1.91307,5.55742 0.47644,7.75 -1.73769,2.65205 -5.32644,3.12449 -8.83232,1.16273 -2.51175,-1.40547 -10.35142,-3.6685 -12.93426,-3.73363 -3.23383,-0.0815 -1.79022,2.75474 4,7.85888 3.1625,2.78778 6.16457,5.07506 6.67126,5.08284 0.50669,0.008 1.76243,-0.74711 2.79053,-1.67753 1.7557,-1.58888 2.04326,-1.58888 4.73303,0 4.34868,2.56883 6.76814,2.14743 8.65847,-1.50806 l 1.65464,-3.19973 2.96803,3.69973 c 1.71739,2.14078 3.87524,3.71874 5.12103,3.74483 1.18416,0.0248 3.50301,0.63717 5.15301,1.36081 3.25169,1.42609 6.17824,0.59617 7.18936,-2.03879 z m -13.90587,-4.11712 c -2.37099,-2.71815 -3.93745,-6.19187 -3.27531,-7.26322 0.76441,-1.23685 8.38403,2.56875 9.15242,4.57114 0.64329,1.67638 -1.30428,4.44208 -3.12806,4.44208 -0.67241,0 -1.90948,-0.7875 -2.74905,-1.75 z m -28.76431,-1.72958 c -3.31449,-3.52812 -1.50692,-5.10338 2.82976,-2.46608 3.29926,2.00639 3.77334,4.19562 1.02413,4.72932 -0.80365,0.15602 -2.5379,-0.86244 -3.85389,-2.26324 z m -48.01918,6.97958 c 0,-0.825 -0.45,-1.5 -1,-1.5 -0.55,0 -1,0.675 -1,1.5 0,0.825 0.45,1.5 1,1.5 0.55,0 1,-0.675 1,-1.5 z m 47,-0.37058 c 0,-0.47882 -5.0625,-5.19043 -11.25,-10.47024 -11.77809,-10.05028 -16.3989,-15.52579 -15.36844,-18.21112 0.81466,-2.12297 -1.05027,-5.44806 -3.05563,-5.44806 -1.35965,0 -1.51938,0.95114 -1.0496,6.25 0.53464,6.03028 0.74166,6.4193 5.88889,11.06563 4.35855,3.93439 23.43337,17.68437 24.53286,17.68437 0.16606,0 0.30192,-0.39176 0.30192,-0.87058 z m -92.18664,-8.95643 c 0.17235,-1.74514 -0.11701,-3.17299 -0.64301,-3.17299 -1.15242,0 -2.17035,2.42255 -2.17035,5.16512 0,3.24893 2.46838,1.50108 2.81336,-1.99213 z m -196.1642,1.26451 c 0.15078,-0.51562 -0.78979,-2.23995 -2.09016,-3.83184 -2.70815,-3.31525 -5.60478,-2.99126 -5.48005,0.61296 0.0434,1.25476 0.30592,1.71888 0.58333,1.03138 0.27741,-0.6875 1.36689,-1.25 2.42105,-1.25 1.39427,0 1.91667,0.70411 1.91667,2.58334 0,2.42221 2.00185,3.06766 2.64916,0.85416 z m 248.56751,-7.62083 c -1.52752,-1.52751 -2.65464,-0.40038 -1.80743,1.80742 0.50024,1.30359 0.93392,1.43276 1.82354,0.54313 0.88963,-0.88962 0.88579,-1.44864 -0.0161,-2.35055 z m -255.6946,-4.61976 c -0.28714,-0.74826 -0.52207,-1.99868 -0.52207,-2.77869 0,-1.93887 -2.55061,-1.78342 -4.98857,0.30403 -2.73453,2.34137 -2.52732,3.93727 0.73857,5.6884 2.46987,1.32431 2.87958,1.30502 4.02207,-0.18937 0.69963,-0.91514 1.03713,-2.2761 0.75,-3.02437 z m -4.52207,1.92113 c 0,-0.55 0.45,-1.27812 1,-1.61804 0.55,-0.33991 1,-0.16803 1,0.38197 0,0.55 -0.45,1.27812 -1,1.61803 -0.55,0.33992 -1,0.16804 -1,-0.38196 z m 11,1.44098 c 0,-1.79236 -1.6522,-2.892 -3.04856,-2.029 -0.7168,0.443 -0.67806,1.09446 0.12245,2.05901 1.51095,1.82059 2.92611,1.80607 2.92611,-0.03 z m 218.55245,-3.1193 c -1.89657,-2.89454 -1.35118,-4.46135 1.31064,-3.76527 2.70065,0.70624 3.37689,-2.16224 1.14942,-4.87558 -2.47647,-3.01666 -5.14776,-1.54105 -6.44105,3.55802 -0.83938,3.3094 -0.64889,3.95286 1.98376,6.70075 3.22663,3.36788 4.5576,2.28969 1.99723,-1.61792 z m 63.27572,2.90284 c 0.86366,-1.54327 1.21293,-1.54327 5.06993,0 2.27831,0.91159 6.10317,1.65744 8.49969,1.65744 8.27101,0 8.68338,-5.41095 0.89222,-11.70716 -2.58136,-2.08606 -7.30263,-6.22383 -10.4917,-9.19506 -8.99365,-8.37927 -7.10127,-3.79987 2.97484,7.19889 3.5875,3.91599 4.17284,5.06349 3.18812,6.25 -1.92429,2.31863 -4.95043,1.70364 -12.87723,-2.617 -7.24832,-3.95082 -7.45829,-3.99986 -9.28894,-2.16921 -2.37828,2.37828 -1.71399,3.84284 3.85069,8.48954 4.93821,4.12359 6.7819,4.59509 8.18238,2.09256 z m -7.65386,-3.65701 c -2.45221,-2.61026 -2.82808,-4.68555 -0.84862,-4.68555 1.9079,0 6.00673,4.65312 5.22006,5.92598 -0.98887,1.60002 -1.96253,1.32374 -4.37144,-1.24043 z m -253.17431,0.4369 c 0,-1.03266 -0.7237,-2.47817 -1.60821,-3.21225 -1.3664,-1.13402 -1.81748,-1.04851 -3,0.56868 -1.82852,2.50065 -1.75573,3.27937 0.35821,3.8318 3.42644,0.89542 4.25,0.66517 4.25,-1.18823 z m 228,0.37755 c 0,-0.825 -0.42344,-1.5 -0.94098,-1.5 -1.26098,0 -2.1641,1.56159 -1.36517,2.36052 1.12619,1.12619 2.30615,0.68589 2.30615,-0.86052 z m -261.07692,-6.57692 c 2.53955,-2.53955 3.07692,-3.87627 3.07692,-7.6539 0,-3.37205 0.9214,-6.2246 3.5,-10.83556 3.58675,-6.41372 4.20257,-8.43362 2.5712,-8.43362 -2.01396,0 -8.10321,6.91006 -8.69449,9.86647 -0.75801,3.79005 -2.63744,4.05148 -4.2162,0.58648 -2.18903,-4.80441 -1.40728,-7.15215 4.36647,-13.11336 5.80451,-5.99295 7.05502,-8.65148 6.17432,-13.12637 -0.29369,-1.49227 0.0966,-4.51321 0.8673,-6.71321 1.81287,-5.17488 1.78723,-5.5 -0.43374,-5.5 -5.12825,0 -11.71294,9.98154 -9.94926,15.08181 1.15834,3.34973 -0.29323,7.12318 -4.90526,12.75155 -3.54716,4.32885 -3.57665,4.43872 -1.88735,7.0321 4.29282,6.59025 4.78539,8.86628 3.23461,14.9463 -2.1767,8.53406 0.61011,10.79668 6.29548,5.11131 z m 252.07692,1.71178 c 0,-2.31747 -3.99457,-6.59144 -8.13452,-8.70348 -2.17001,-1.10706 -4.44971,-3.1195 -5.06599,-4.4721 -1.63677,-3.59232 -2.79949,-3.00883 -2.79949,1.40487 0,3.66223 0.23669,3.95453 4.52992,5.59413 2.49146,0.9515 5.75396,3.01596 7.25,4.58771 3.02588,3.17898 4.22008,3.6286 4.22008,1.58887 z m 9.48313,-2.94023 c 3.17379,-7.59596 3.07713,-8.47133 -1.40635,-12.73637 -4.15322,-3.95086 -7.08242,-5.07286 -7.07046,-2.70826 0.003,0.6875 1.35348,2.01657 3,2.9535 3.25716,1.85341 4.0634,5.66382 1.62636,7.68639 -1.04502,0.86729 -1.68979,0.74623 -2.73532,-0.51356 -0.7524,-0.90659 -3.11053,-2.74835 -5.24029,-4.09281 -3.81263,-2.4068 -3.83982,-2.46721 -1.76468,-3.9207 1.15919,-0.81192 2.10761,-2.35732 2.10761,-3.43422 0,-2.1071 -5.30724,-5.91857 -8.25,-5.92486 -2.78167,-0.006 -2.0314,1.70252 1.25,2.84642 1.65,0.57519 3,1.73297 3,2.57283 0,1.16335 -0.71446,1.38412 -3,0.92702 -2.81394,-0.56279 -3,-0.40895 -3,2.48049 0,2.69505 0.71946,3.49969 5.75,6.43083 4.033,2.3499 6.27492,4.45345 7.50787,7.04451 2.38518,5.01246 6.21767,5.19361 8.22526,0.38879 z m -245.52631,-7.39477 c 3.44412,-4.81158 4.00615,-14.43842 1.11217,-19.04986 -2.6572,-4.23413 -4.06899,-4.11881 -4.06899,0.33239 0,1.97031 -1.38534,6.73877 -3.07854,10.59656 -3.33232,7.5924 -4.53099,12.79027 -3.54315,15.36453 0.53855,1.40343 1.07871,1.25141 3.87375,-1.09024 1.78637,-1.4966 4.35351,-4.26562 5.70476,-6.15338 z m 282.04318,7.7232 c 0,-1.87664 -4.78703,-4.24162 -6.56809,-3.24489 -1.50103,0.84002 -1.43135,1.10882 0.66874,2.57978 2.59091,1.81474 5.89935,2.18775 5.89935,0.66511 z m -16,-4.93004 c 0,-2.01248 -1.88076,-4.09302 -3.7,-4.09302 -1.55441,0 -1.69042,2.40198 -0.28475,5.02851 1.1911,2.22558 3.98475,1.56972 3.98475,-0.93549 z m -50.68713,-3.18015 c -1.32782,-1.32782 -2.79931,0.49104 -1.75902,2.17427 0.48382,0.78284 0.97617,0.78284 1.75902,0 0.78284,-0.78285 0.78284,-1.39142 0,-2.17427 z m 60.65533,0.83713 c -0.0175,-0.6875 -0.68494,-2.11317 -1.48321,-3.16816 -1.22879,-1.62395 -1.83744,-1.74228 -3.9682,-0.77144 -2.42013,1.10268 -3.24756,3.1255 -1.85012,4.52294 1.21532,1.21532 7.33485,0.72642 7.30153,-0.58334 z m -72.75153,-4.93333 c -1.52752,-1.52751 -2.65464,-0.40038 -1.80743,1.80742 0.50024,1.30359 0.93392,1.43276 1.82354,0.54313 0.88963,-0.88962 0.88579,-1.44864 -0.0161,-2.35055 z m -31.46667,-0.0943 c 1.86438,-1.4426 1.51182,-2.72233 -0.75,-2.72233 -2.57162,0 -2.5205,-0.45103 0.5,-4.41111 1.375,-1.80272 2.5,-3.93269 2.5,-4.73328 0,-1.83778 -1.97614,-3.85561 -3.77596,-3.85561 -2.07226,0 -13.22404,8.90389 -13.22404,10.55845 0,2.09499 1.44809,1.77684 4.81763,-1.05845 4.55444,-3.8323 7.49944,-2.90689 3.18237,1 -5,4.52495 1.32601,9.41924 6.75,5.22233 z m 16.61645,-1.97233 c 3.66117,-6.34905 5.50294,-12.74495 6.25017,-21.70496 0.63615,-7.62795 0.56614,-8.04503 -1.3504,-8.04503 -3.40524,0 -4.46622,2.48127 -4.46622,10.44492 0,8.49573 -1.20698,14.97413 -3.42285,18.372 -2.16163,3.31467 -4.37715,1.16889 -4.37715,-4.23937 0,-2.29766 -0.47491,-4.65246 -1.05536,-5.23291 -1.75195,-1.75196 -0.0306,-6.34465 2.37805,-6.34465 1.98131,0 2.0054,-0.10047 0.40731,-1.69856 -2.56531,-2.56531 -7.36259,-0.65458 -6.88303,2.74147 0.19084,1.3514 0.32673,4.3339 0.30197,6.62778 -0.0266,2.46921 0.54573,4.66095 1.40303,5.37244 0.79642,0.66097 1.44803,2.18166 1.44803,3.37932 0,2.80304 1.80564,4.57755 4.65785,4.57755 1.60519,0 2.96626,-1.2285 4.7086,-4.25 z m 79.16567,0.80103 c 4.61801,-1.92953 4.48157,-4.4012 -0.53402,-9.67368 -4.43657,-4.66381 -5.79511,-4.6024 -4.1257,0.18648 1.30926,3.75572 0.78182,4.94392 -2.18142,4.91421 -2.42343,-0.0243 -9.08273,-2.91276 -12.18941,-5.28714 -2.5137,-1.92119 -1.39826,-3.24115 1.45056,-1.71652 2.72553,1.45866 6.04787,0.41112 6.04787,-1.9069 0,-0.98877 -0.88223,-2.91933 -1.96051,-4.29015 -1.59186,-2.02372 -3.12429,-2.59791 -8.1495,-3.05358 -5.06579,-0.45935 -6.6891,-1.07502 -8.94472,-3.39247 -1.51565,-1.5572 -3.07149,-4.35007 -3.45743,-6.20638 -0.87757,-4.22101 0.60079,-3.52885 4.01517,1.87987 2.2866,3.62222 5.91603,5.90953 7.254,4.57156 0.33346,-0.33345 -0.75406,-2.06204 -2.41669,-3.8413 -1.66264,-1.77926 -4.02986,-4.70431 -5.26049,-6.50011 -2.6422,-3.85564 -7.11128,-6.45154 -9.04714,-5.25511 -1.11939,0.69181 -1.08288,1.40289 0.21448,4.17697 0.85995,1.83878 2.14645,5.31946 2.8589,7.73485 1.54063,5.22314 6.74739,11.10837 9.82775,11.10837 1.20871,0 3.08508,-0.47493 4.16969,-1.05539 2.41989,-1.29509 5.89649,-0.32892 5.89649,1.63867 0,0.96792 -0.92187,1.37825 -2.77862,1.23677 -8.95231,-0.68214 -5.6406,7.11156 5.77862,13.59925 5.13299,2.91624 8.57269,3.20391 13.53212,1.13173 z m -45.53212,-2.63048 c 0,-1.77158 -0.42691,-1.98569 -2.8834,-1.44615 -2.56928,0.5643 -3.00364,0.28841 -3.98702,-2.53252 -0.82517,-2.3671 -1.52823,-3.00288 -2.78664,-2.51998 -2.2551,0.86536 -3.27719,-1.05219 -2.64321,-4.95894 0.59876,-3.68974 -1.49915,-5.94598 -2.38367,-2.56357 -0.85005,3.25061 -2.56286,2.50078 -1.83697,-0.80419 0.63001,-2.8684 -1.09842,-5.52803 -1.89022,-2.90858 -1.36856,4.52755 -1.71515,5.0871 -2.60176,4.2005 -0.59643,-0.59644 -0.55587,-2.36506 0.10951,-4.77488 1.1905,-4.31164 -0.30829,-9.61223 -2.71794,-9.61223 -1.06113,0 -1.37868,1.91686 -1.37868,8.32237 l 0,8.32236 4.08974,2.67763 c 2.24936,1.4727 4.48353,2.67763 4.96482,2.67763 0.48129,0 1.35674,0.9 1.94544,2 0.5887,1.10001 1.9387,2 3,2 1.0613,0 2.4113,0.9 3,2 0.7542,1.40923 2.09382,2 4.53518,2 2.84228,0 3.46482,-0.37362 3.46482,-2.07945 z m 13.51443,-11.48999 c -7.74469,-8.57501 -8.5765,-9.87145 -8.00454,-12.4756 0.81184,-3.69627 -0.15886,-5.49117 -2.09892,-3.88107 -0.80178,0.66542 -1.41097,2.97114 -1.41097,5.34035 0,3.5921 0.58842,4.73984 4.25,8.28985 5.21248,5.05365 13.95344,12.14419 15.07864,12.23157 0.45575,0.0354 -3.06064,-4.24191 -7.81421,-9.5051 z m -35.51443,7.26945 c 0,-1.44095 -1.95378,-3.70001 -3.2,-3.70001 -0.96627,0 -1.07076,3.39591 -0.13333,4.33334 1.14485,1.14485 3.33333,0.72904 3.33333,-0.63333 z m -269.60699,-5.28179 c 0.93255,-2.43018 0.71972,-8.41822 -0.29921,-8.41822 -0.4984,0 -2.52265,2.25 -4.49833,5 l -3.59214,5 3.89134,0 c 2.62591,0 4.08874,-0.51438 4.49834,-1.58178 z m 256.27116,-0.98543 c 0.33077,-0.86197 0.20414,-1.95668 -0.28139,-2.43268 -1.16937,-1.14643 -4.77807,1.55129 -3.9239,2.93336 0.98273,1.59009 3.51885,1.28814 4.20529,-0.50068 z m 43.33583,0.0929 c 0,-1.715 -3.78633,-3.85503 -9.57667,-5.41273 -2.62292,-0.70561 -4.55218,-1.98519 -5.41011,-3.58825 -0.73339,-1.37036 -2.13368,-2.74555 -3.11174,-3.05597 -2.3061,-0.73193 -7.90148,-7.10772 -7.90148,-9.00353 0,-1.90824 1.42009,-1.86888 3.04109,0.0843 0.86941,1.04757 2.60971,1.45249 5.37244,1.25 3.74005,-0.27412 4.11166,-0.55655 4.38358,-3.33171 0.34459,-3.51662 -3.39357,-9.7664 -6.16022,-10.29921 -1.95542,-0.37657 -10.63689,8.30053 -10.63689,10.63155 0,2.57574 5.5107,10.73822 10.87972,16.11512 5.34308,5.35092 7.32417,6.20995 18.37028,7.96554 0.4125,0.0656 0.75,-0.54424 0.75,-1.35511 z m -21.04431,-25.07911 c -0.90307,-1.08814 -0.96109,-1.84121 -0.20044,-2.60186 1.28164,-1.28164 3.24475,-0.2802 3.24475,1.65525 0,2.13701 -1.63455,2.64526 -3.04431,0.94661 z m -234.14752,22.11909 c 5.43525,-6.19041 5.2122,-11.26291 -0.38316,-8.71349 -2.13562,0.97306 -2.51221,1.66422 -2.0059,3.6815 0.36515,1.45489 -0.0174,3.72253 -0.92357,5.47491 -2.07427,4.01119 -0.40179,3.78757 3.31263,-0.44292 z m -36.34297,-1.6693 c 4.735,-4.15738 4.66756,-6.11134 -0.19698,-5.70677 -2.99506,0.24909 -3.91344,0.83018 -4.6519,2.94335 -0.84529,2.41892 -0.36484,5.86701 0.8175,5.86701 0.27312,0 2.08725,-1.39661 4.03138,-3.10359 z m 248.5348,-4.92779 c 0,-1.19716 -2.82062,-2.48132 -3.64326,-1.65868 -0.87571,0.87571 0.60965,2.69007 2.20228,2.69007 0.79254,0 1.44098,-0.46413 1.44098,-1.03139 z m 35.7146,-7.03023 c 3.08292,-8.96284 2.97397,-13.61023 -0.40169,-17.13366 -1.6971,-1.77139 -3.72344,-2.80472 -5.5,-2.80472 -1.5471,0 -2.81291,0.20119 -2.81291,0.44708 0,0.2459 1.16397,2.6084 2.58659,5.25 2.32289,4.31325 2.54494,5.64647 2.17801,13.07692 -0.49432,10.01004 0.77833,10.38519 3.95,1.16438 z m -246.93607,1.22604 c 0.48123,-1.44369 -4.6677,-1.54252 -6.77853,-0.13011 -1.29855,0.8689 -1.23978,1.20225 0.43759,2.48211 1.63155,1.24488 2.25471,1.26785 3.9452,0.14541 1.10418,-0.73315 2.18226,-1.85699 2.39574,-2.49741 z M 446.37065,195.888 c 0,-1.27875 -2.94038,-3.5154 -3.66667,-2.78911 -0.72629,0.72629 1.51036,3.66667 2.78911,3.66667 0.48266,0 0.87756,-0.3949 0.87756,-0.87756 z"
       id="path3023"
       style="fill:#000000" />
  </g>
</svg>
